<svg xmlns="http://www.w3.org/2000/svg" xmlns:xlink="http://www.w3.org/1999/xlink" width="500" zoomAndPan="magnify" viewBox="0 0 375 374.999991" height="500" preserveAspectRatio="xMidYMid meet" version="1.0"><defs><clipPath id="78ae612643"><path d="M 15 15 L 360 15 L 360 360 L 15 360 Z M 15 15 " clip-rule="nonzero"/></clipPath><clipPath id="baa2266615"><path d="M 187.496094 0 L 374.996094 187.5 L 187.496094 375 L -0.00390625 187.5 Z M 187.496094 0 " clip-rule="nonzero"/></clipPath><clipPath id="6c5e1c03dc"><path d="M 214.015625 26.515625 L 348.480469 160.984375 C 363.125 175.628906 363.125 199.371094 348.480469 214.015625 L 214.015625 348.484375 C 199.371094 363.128906 175.625 363.128906 160.980469 348.484375 L 26.515625 214.015625 C 11.871094 199.371094 11.871094 175.628906 26.515625 160.984375 L 160.980469 26.515625 C 175.625 11.871094 199.371094 11.871094 214.015625 26.515625 Z M 214.015625 26.515625 " clip-rule="nonzero"/></clipPath><clipPath id="773397bc7a"><path d="M 15 15 L 360 15 L 360 360 L 15 360 Z M 15 15 " clip-rule="nonzero"/></clipPath><clipPath id="71b9656fc7"><path d="M 187.496094 0 L 375.0625 187.566406 L 187.496094 375.132812 L -0.0703125 187.566406 Z M 187.496094 0 " clip-rule="nonzero"/></clipPath><clipPath id="b0a1e33c37"><path d="M 187.496094 0 L 374.992188 187.496094 L 187.496094 374.992188 L 0 187.496094 Z M 187.496094 0 " clip-rule="nonzero"/></clipPath><clipPath id="ecf61efc09"><path d="M 214.011719 26.515625 L 348.476562 160.980469 C 363.121094 175.625 363.121094 199.367188 348.476562 214.011719 L 214.011719 348.476562 C 199.367188 363.121094 175.625 363.121094 160.980469 348.476562 L 26.519531 214.011719 C 11.875 199.367188 11.875 175.625 26.519531 160.980469 L 160.980469 26.515625 C 175.625 11.871094 199.367188 11.871094 214.011719 26.515625 Z M 214.011719 26.515625 " clip-rule="nonzero"/></clipPath><clipPath id="bd3ae04b9c"><path d="M 176 97 L 278 97 L 278 199 L 176 199 Z M 176 97 " clip-rule="nonzero"/></clipPath><clipPath id="20b53fa22e"><path d="M 191.726562 96.226562 L 278.832031 183.335938 L 261.914062 200.253906 L 174.808594 113.148438 Z M 191.726562 96.226562 " clip-rule="nonzero"/></clipPath><clipPath id="e0de6bb0fc"><path d="M 194.378906 98.878906 L 276.117188 180.621094 C 276.824219 181.324219 277.21875 182.277344 277.21875 183.269531 C 277.21875 184.265625 276.824219 185.21875 276.117188 185.921875 L 264.503906 197.539062 C 263.800781 198.242188 262.847656 198.636719 261.851562 198.636719 C 260.855469 198.636719 259.902344 198.242188 259.199219 197.539062 L 177.460938 115.796875 C 176.757812 115.09375 176.363281 114.140625 176.363281 113.148438 C 176.363281 112.152344 176.757812 111.199219 177.460938 110.496094 L 189.074219 98.878906 C 189.777344 98.175781 190.734375 97.78125 191.726562 97.78125 C 192.722656 97.78125 193.675781 98.175781 194.378906 98.878906 Z M 194.378906 98.878906 " clip-rule="nonzero"/></clipPath><clipPath id="d785a711b3"><path d="M 132 141 L 234 141 L 234 243 L 132 243 Z M 132 141 " clip-rule="nonzero"/></clipPath><clipPath id="8a0a978d57"><path d="M 235.246094 156.664062 L 148.136719 243.769531 L 131.21875 226.851562 L 218.324219 139.742188 Z M 235.246094 156.664062 " clip-rule="nonzero"/></clipPath><clipPath id="ff738d4307"><path d="M 232.59375 159.316406 L 150.851562 241.054688 C 150.148438 241.757812 149.195312 242.152344 148.199219 242.152344 C 147.207031 242.152344 146.253906 241.757812 145.550781 241.054688 L 133.933594 229.4375 C 133.230469 228.734375 132.835938 227.78125 132.835938 226.789062 C 132.835938 225.792969 133.230469 224.839844 133.933594 224.136719 L 215.675781 142.394531 C 216.378906 141.691406 217.332031 141.296875 218.324219 141.296875 C 219.320312 141.296875 220.273438 141.691406 220.976562 142.394531 L 232.59375 154.011719 C 233.296875 154.714844 233.691406 155.667969 233.691406 156.664062 C 233.691406 157.65625 233.296875 158.613281 232.59375 159.316406 Z M 232.59375 159.316406 " clip-rule="nonzero"/></clipPath></defs><g clip-path="url(#78ae612643)"><g clip-path="url(#baa2266615)"><g clip-path="url(#6c5e1c03dc)"><path fill="#4f46e5" d="M 187.496094 0 L 374.996094 187.5 L 187.496094 375 L -0.00390625 187.5 Z M 187.496094 0 " fill-opacity="1" fill-rule="nonzero"/></g></g></g><g clip-path="url(#773397bc7a)"><g clip-path="url(#71b9656fc7)"><g clip-path="url(#b0a1e33c37)"><g clip-path="url(#ecf61efc09)"><path stroke-linecap="butt" transform="matrix(0.564959, 0.564959, -0.564959, 0.564959, 187.497547, 0.0010121)" fill="none" stroke-linejoin="miter" d="M 46.931548 0.00039006 L 284.939763 0.00039006 C 310.861176 0.00039006 331.873492 21.012706 331.873492 46.934119 L 331.873492 284.942334 C 331.873492 310.863747 310.861176 331.876063 284.939763 331.876063 L 46.935005 331.872606 C 21.013592 331.872606 0.00127559 310.86029 0.00127559 284.938877 L -0.00218152 46.934119 C -0.00218152 21.012706 21.010135 0.00039006 46.931548 0.00039006 Z M 46.931548 0.00039006 " stroke="#ffffff" stroke-width="28.161171" stroke-opacity="1" stroke-miterlimit="4"/></g></g></g></g><g clip-path="url(#bd3ae04b9c)"><g clip-path="url(#20b53fa22e)"><g clip-path="url(#e0de6bb0fc)"><path fill="#ffffff" d="M 191.726562 96.226562 L 278.765625 183.269531 L 261.847656 200.1875 L 174.808594 113.148438 Z M 191.726562 96.226562 " fill-opacity="1" fill-rule="nonzero"/></g></g></g><g clip-path="url(#d785a711b3)"><g clip-path="url(#8a0a978d57)"><g clip-path="url(#ff738d4307)"><path fill="#ffffff" d="M 235.246094 156.664062 L 148.203125 243.703125 L 131.285156 226.785156 L 218.324219 139.742188 Z M 235.246094 156.664062 " fill-opacity="1" fill-rule="nonzero"/></g></g></g></svg>